<?xml version="1.0" encoding="UTF-8"?>
<!-- Generator: Adobe Illustrator 19.0.0, SVG Export Plug-In . SVG Version: 6.00 Build 0)  -->
<svg version="1.1" id="Layer_1" xmlns="http://www.w3.org/2000/svg" xmlns:xlink="http://www.w3.org/1999/xlink" x="0px" y="0px" viewBox="0 0 35 35" style="enable-background:new 0 0 35 35;" xml:space="preserve">

<style type="text/css">

	.st0{fill:#3E5673;}

	.st1{fill:#f0f0f0;}

</style>

<circle id="XMLID_6_" class="st0" cx="17.4" cy="17.7" r="16.8"/>

<g id="XMLID_2_">

	<path id="XMLID_3_" class="st1" d="M17.4,11.1l5.6,5.4v8.3h-2.8V21c0-0.6-0.5-1.1-1.2-1.1h-3.4c-0.6,0-1.2,0.5-1.2,1.1v3.8h-2.8    v-8.3L17.4,11.1 M17.9,9.2c-0.3-0.3-0.7-0.3-1,0l-6.4,6.3c-0.2,0.2-0.3,0.5-0.3,0.8v9c0,0.6,0.5,1.1,1.2,1.1h3.8    c0.6,0,1.2-0.5,1.2-1.1v-3.8h2.2v3.8c0,0.6,0.5,1.1,1.2,1.1h3.8c0.6,0,1.2-0.5,1.2-1.1v-9c0-0.3-0.1-0.6-0.3-0.8L17.9,9.2z"/>

</g>

</svg>